<svg version="1.1" id="Layer_1" xmlns="http://www.w3.org/2000/svg" xmlns:xlink="http://www.w3.org/1999/xlink"viewBox="0 0 564 563" style="enable-background:new 0 0 564 563;" xml:space="preserve" preserveAspectRatio="xMinYMin meet">
<style type="text/css">
    .st0{fill:#10769E;cursor:pointer;}
    .st1{fill:#FFFFFF;}
    .st2{fill:none;stroke:#14385E;stroke-width:80;stroke-miterlimit:10;cursor:pointer;}
    .st3{fill:none;stroke:#14385E;stroke-width:10;stroke-miterlimit:10;}
    .st4{fill:#14385E;}
    .st5{fill:none;stroke:#0D5787;stroke-width:52;stroke-miterlimit:10;cursor:pointer;}
    .ignore-pointer{pointer-events:none;}
</style>
<a class="svg-link" xlink:href="https://google.com" target="_top"><circle id="core-team" class="st0" cx="283" cy="282" r="124.9"/></a>
<g class="ignore-pointer">
    <path class="st1" d="M268.5,274.4c-0.7,0.3-2,0.6-3.7,0.6c-6.2,0-9.1-5.1-9.1-12c0-9.1,5.1-12.7,9.8-12.7c1.7,0,2.8,0.3,3.3,0.6
        l-0.8,4c-0.5-0.3-1.2-0.5-2.2-0.5c-2.7,0-5.1,2.3-5.1,8.3c0,5.8,2.2,8.1,5.1,8.1c0.8,0,1.7-0.2,2.3-0.4L268.5,274.4z"/>
    <path class="st1" d="M283.4,265.9c0,7.3-4.1,9.1-6.7,9.1c-4.2,0-6.7-3.3-6.7-9c0-6.3,3.3-9.1,6.8-9.1
        C280.9,256.8,283.4,260.3,283.4,265.9z M274.6,265.9c0,3,0.5,5.5,2.2,5.5c1.5,0,1.9-3,1.9-5.5c0-2.4-0.4-5.5-2-5.5
        C274.9,260.4,274.6,263.5,274.6,265.9z"/>
    <path class="st1" d="M286,262.4c0-1.8-0.1-3.7-0.1-5.3h4.1l0.3,2.6h0.1c0.8-1.9,2.2-2.8,3.5-2.8c0.5,0,0.7,0,1,0.1v4.7
        c-0.3-0.1-0.6-0.1-1-0.1c-1,0-2.3,0.7-2.9,2.5c-0.1,0.4-0.2,1-0.2,1.8v8.9H286V262.4z"/>
    <path class="st1" d="M300.4,267.6c0.1,2.7,1.7,3.7,3.7,3.7c1.3,0,2.5-0.3,3.3-0.6l0.6,3.4c-1.2,0.5-3.1,0.8-4.9,0.8
        c-4.8,0-7.4-3.2-7.4-8.7c0-5.9,3.1-9.4,7.1-9.4c3.8,0,6,3,6,8.3c0,1.3,0,1.9-0.1,2.4H300.4z M304.6,264.3c0-2.3-0.6-4-2-4
        c-1.5,0-2.2,2.3-2.2,4H304.6z"/>
    <path class="st1" d="M253.5,298h-4.3v-4.4h13.3v4.4h-4.3v19.9h-4.7V298z"/>
    <path class="st1" d="M266.8,310.8c0.1,2.7,1.7,3.7,3.7,3.7c1.3,0,2.5-0.3,3.3-0.6l0.6,3.4c-1.2,0.5-3.1,0.8-4.9,0.8
        c-4.8,0-7.4-3.2-7.4-8.7c0-5.9,3.1-9.4,7.1-9.4c3.8,0,6,3,6,8.3c0,1.3,0,1.9-0.1,2.4H266.8z M271,307.5c0-2.3-0.6-4-2-4
        c-1.5,0-2.2,2.3-2.2,4H271z"/>
    <path class="st1" d="M285.9,317.9l-0.3-1.7h-0.1c-1,1.4-2.3,2-3.9,2c-2.7,0-4.6-2.2-4.6-5.4c0-4.6,4.1-6.5,8.1-6.6v-0.4
        c0-1.4-0.8-2.4-2.5-2.4c-1.4,0-2.6,0.4-3.6,1l-0.9-3.2c1-0.6,3-1.3,5.5-1.3c5.4,0,6.2,3.7,6.2,7.3v6.6c0,1.4,0.1,2.8,0.3,4H285.9z
         M285.2,309.4c-1.6,0-3.7,0.5-3.7,3c0,1.8,1,2.4,1.7,2.4c0.8,0,1.6-0.5,1.9-1.5c0.1-0.3,0.1-0.5,0.1-0.8V309.4z"/>
    <path class="st1" d="M293.2,305.6c0-1.9-0.1-3.6-0.1-5.3h4.1l0.2,2.1h0.1c0.9-1.3,2.4-2.3,4.2-2.3c2,0,3.2,0.9,3.9,2.4h0.1
        c0.4-0.7,1.1-1.3,1.8-1.8c0.7-0.4,1.6-0.6,2.5-0.6c3.1,0,4.5,2.5,4.5,6.7v11.2h-4.7v-10.4c0-2-0.2-3.6-1.7-3.6
        c-0.8,0-1.4,0.6-1.8,1.6c-0.1,0.3-0.1,0.8-0.1,1.2v11.2h-4.7v-11.1c0-1.3-0.1-3-1.6-3c-0.7,0-1.4,0.5-1.8,1.6
        c-0.1,0.3-0.2,0.8-0.2,1.3v11.1h-4.7V305.6z"/>
</g>
<a class="svg-link" xlink:href="http://whitehouse.gov" target="_top"><path id="medical-team" class="st2" d="M73,397.2c63.6,116,209.2,158.4,325.1,94.8c74-40.6,119.1-112.1,123.9-196.4"/></a>
<a class="svg-link" xlink:href="http://apple.com" target="_top"><path id="lab-support" class="st2" d="M520.8,253.9C505.3,122.5,386.2,28.6,254.9,44.2C138.2,58,50.6,151.1,43.9,268.4"/></a>
<g class="ignore-pointer">
    <g>
        <path class="st1" d="M114.7,457.7c1.6-1.7,3.6-4,5.5-5.8l-0.1-0.1c-2.1,1.5-4.7,3.2-6.4,4.2l-7.6,4.6l-2.4-2.4l4.6-7.5
            c1-1.7,2.7-4.3,4.3-6.4l-0.1-0.1c-1.9,1.8-4.2,3.9-6,5.5l-6.2,5.7l-2.9-2.9l18.4-15.9l3.5,3.5l-4.8,7.6c-1.7,2.6-3.2,5-4.8,7.2
            l0.1,0.1c2.2-1.7,4.5-3.2,7.1-4.9l7.6-4.9l3.5,3.5L112,466.9l-3-3L114.7,457.7z"/>
        <path class="st1" d="M122.7,466.7c-1.7,2.1-1.2,3.9,0.4,5.3c1,0.9,2.1,1.4,2.9,1.7l-1.7,3c-1.2-0.4-2.8-1.4-4.2-2.6
            c-3.6-3.1-3.6-7.2,0-11.4c3.8-4.5,8.5-5.2,11.5-2.6c2.9,2.5,2.6,6.2-0.9,10.2c-0.8,1-1.3,1.5-1.7,1.8L122.7,466.7z M128,466.9
            c1.5-1.7,2.2-3.4,1.1-4.4c-1.2-1-3.1,0.3-4.3,1.6L128,466.9z"/>
        <path class="st1" d="M152.3,467.4l-11.8,15.8c-1,1.4-2.1,2.9-3,4.3l-3.3-2.4l1-1.7l-0.1,0c-1.3,0.6-3,0.6-4.3-0.4
            c-3-2.2-1.9-6.6,1-10.5c3.7-4.9,7.6-5.7,10-3.9c1.2,0.9,1.6,2.1,1.3,3.2l0.1,0l5.3-7L152.3,467.4z M140.1,475.9
            c0.2-0.3,0.4-0.5,0.6-0.9c0.5-1,0.6-2.1-0.1-2.7c-1.3-1-3.3,0.6-5,2.9c-2,2.7-2.3,4.6-1.3,5.4c0.5,0.3,1.2,0.5,2.2-0.3
            c0.2-0.1,0.5-0.4,0.8-0.8L140.1,475.9z"/>
        <path class="st1" d="M140.7,489.6l9.8-14.6l3.9,2.6l-9.8,14.6L140.7,489.6z M157,473.7c-0.8,1.3-2.3,1.5-3.5,0.7
            c-1.1-0.7-1.4-2.2-0.5-3.4c0.9-1.3,2.4-1.5,3.4-0.8C157.6,471,157.9,472.4,157,473.7z"/>
        <path class="st1" d="M156.3,499.2c-0.5-0.1-1.7-0.4-2.8-1.1c-3.8-2.3-4.7-6.5-1.7-11.4c2.8-4.6,7.5-6.2,11.7-3.6
            c1,0.6,1.7,1.3,2,1.8l-2.5,2.8c-0.3-0.3-0.7-0.8-1.3-1.2c-1.9-1.2-4.2,0-5.8,2.6c-1.7,2.7-1.6,5.1,0.3,6.2
            c0.6,0.4,1.1,0.6,1.7,0.6L156.3,499.2z"/>
        <path class="st1" d="M165.8,504.7l0.6-1.6l-0.1,0c-1.5,0.7-3,0.7-4.4-0.1c-2.3-1.3-3-4.2-1.6-6.9c2.2-4.1,6.7-3.8,10.2-2l0.2-0.3
            c0.6-1.2,0.4-2.5-1.1-3.3c-1.2-0.7-2.4-0.9-3.6-0.8l0.7-3.2c1.1,0,3.3,0.3,5.5,1.4c4.7,2.5,3.7,6.2,2,9.4l-3.1,5.8
            c-0.7,1.2-1.3,2.5-1.6,3.7L165.8,504.7z M169.2,496.8c-1.4-0.7-3.6-1.3-4.7,0.9c-0.8,1.6-0.3,2.6,0.4,2.9c0.7,0.4,1.6,0.4,2.4-0.4
            c0.2-0.2,0.3-0.4,0.5-0.7L169.2,496.8z"/>
        <path class="st1" d="M183.5,485.7l4.3,2l-10.7,22.5l-4.3-2L183.5,485.7z"/>
        <path class="st1" d="M195.9,496.7l-4-1.6l1.6-4.1l12.4,4.9l-1.6,4.1l-4-1.6L193,517l-4.4-1.7L195.9,496.7z"/>
        <path class="st1" d="M204,513.4c-0.8,2.6,0.4,4.1,2.4,4.7c1.3,0.4,2.5,0.5,3.4,0.5l-0.5,3.4c-1.3,0.1-3.2-0.2-4.9-0.8
            c-4.5-1.5-6-5.3-4.3-10.6c1.9-5.6,5.9-8,9.7-6.7c3.6,1.2,4.7,4.7,3,9.8c-0.4,1.2-0.6,1.8-0.9,2.3L204,513.4z M209,511.6
            c0.7-2.2,0.7-4-0.6-4.5c-1.5-0.5-2.8,1.5-3.4,3.1L209,511.6z"/>
        <path class="st1" d="M220.7,525.8l0.2-1.7l-0.1,0c-1.3,1.1-2.8,1.4-4.3,1c-2.6-0.7-3.9-3.3-3.1-6.4c1.2-4.5,5.6-5.3,9.5-4.3
            l0.1-0.4c0.3-1.3-0.2-2.5-1.8-2.9c-1.4-0.4-2.6-0.3-3.7,0.1l0-3.3c1.1-0.3,3.3-0.5,5.6,0.1c5.2,1.4,5.1,5.2,4.2,8.7l-1.7,6.3
            c-0.4,1.4-0.7,2.8-0.8,4L220.7,525.8z M222.3,517.4c-1.5-0.4-3.8-0.4-4.4,1.9c-0.5,1.7,0.3,2.6,1,2.8c0.7,0.2,1.7,0,2.3-1
            c0.1-0.2,0.2-0.5,0.3-0.8L222.3,517.4z"/>
        <path class="st1" d="M230.9,515.8c0.3-1.9,0.5-3.6,0.8-5.2l4,0.7l-0.1,2.1l0.1,0c1.1-1.2,2.7-1.9,4.6-1.6c1.9,0.3,3,1.5,3.4,3
            l0.1,0c0.5-0.6,1.3-1.1,2-1.4c0.8-0.3,1.7-0.3,2.6-0.2c3.1,0.5,4,3.2,3.3,7.4l-1.9,11l-4.6-0.8l1.8-10.2c0.4-2,0.4-3.6-1-3.9
            c-0.8-0.1-1.5,0.3-2,1.3c-0.1,0.2-0.3,0.7-0.4,1.2l-1.9,11l-4.6-0.8l1.9-10.9c0.2-1.2,0.4-2.9-1.1-3.2c-0.7-0.1-1.5,0.3-2,1.3
            c-0.2,0.3-0.3,0.8-0.4,1.3l-1.9,10.9l-4.6-0.8L230.9,515.8z"/>
    </g>
    <g>
        <path class="st1" d="M120.3,89.2l3.7-3l12.7,15.8l4.8-3.9l2.5,3.1l-8.5,6.9L120.3,89.2z"/>
        <path class="st1" d="M151.9,95.6l-1.2-1.3l-0.1,0c0,1.7-0.7,3-2,3.9c-2.2,1.5-5.1,0.9-6.9-1.7c-2.7-3.8-0.5-7.7,2.8-10l-0.2-0.3
            c-0.8-1.1-2.1-1.5-3.4-0.5c-1.1,0.8-1.9,1.8-2.4,2.9l-2.5-2.1c0.5-1,1.7-2.8,3.7-4.3c4.4-3.1,7.2-0.6,9.3,2.3l3.8,5.3
            c0.8,1.1,1.7,2.3,2.6,3.1L151.9,95.6z M146.4,89c-1.3,0.9-2.7,2.6-1.3,4.6c1,1.4,2.2,1.4,2.8,1c0.6-0.4,1-1.3,0.7-2.4
            c-0.1-0.2-0.2-0.5-0.4-0.7L146.4,89z"/>
        <path class="st1" d="M157.1,92c-0.8-1.4-1.7-3.1-2.6-4.5l-10.3-16.8l4-2.5l4.8,7.7l0.1,0c0.1-1.5,0.6-2.8,2.1-3.7
            c2.9-1.8,6.2,0.7,8.7,4.7c3.2,5.2,2.9,9.4,0.1,11.2c-1.3,0.8-2.5,0.8-4.2-0.2l-0.1,0.1l0.9,1.9L157.1,92z M157.9,84.1
            c0.2,0.4,0.5,0.7,0.7,0.9c1,0.9,1.7,0.8,2.2,0.5c1.3-0.8,0.9-2.9-0.9-5.7c-1.6-2.6-3.2-3.9-4.6-3.1c-0.6,0.4-0.7,1.3-0.5,2.2
            c0.1,0.3,0.2,0.7,0.4,1L157.9,84.1z"/>
        <path class="st1" d="M177.6,70.1c3.4,6.5,0.7,10-1.7,11.2c-3.7,2-7.5,0.2-10.2-4.9c-3-5.6-1.3-9.6,1.8-11.3
            C171.1,63.3,175,65.2,177.6,70.1z M169.8,74.2c1.4,2.7,3,4.7,4.5,3.9c1.3-0.7,0.3-3.5-0.9-5.8c-1.1-2.1-2.9-4.7-4.3-3.9
            C167.6,69.2,168.7,72.1,169.8,74.2z"/>
        <path class="st1" d="M178.4,66c-0.7-1.6-1.6-3.3-2.3-4.7l3.7-1.7l1.3,2.2l0.1,0c-0.1-2,0.8-3.5,2-4c0.4-0.2,0.7-0.3,0.9-0.4l2,4.3
            c-0.3,0.1-0.6,0.2-0.9,0.4c-0.9,0.4-1.8,1.6-1.6,3.5c0.1,0.4,0.3,1,0.6,1.7l3.7,8.1l-4.3,2L178.4,66z"/>
        <path class="st1" d="M199.9,70.1l-0.9-1.5l-0.1,0c-0.4,1.6-1.4,2.7-2.9,3.3c-2.5,1-5.1-0.4-6.3-3.3c-1.7-4.3,1.4-7.6,5.1-9.1
            l-0.1-0.4c-0.5-1.3-1.6-1.9-3.2-1.3c-1.3,0.5-2.2,1.3-3,2.3l-2-2.6c0.7-0.9,2.3-2.4,4.6-3.2c5-2,7.2,1.2,8.5,4.5l2.4,6.1
            c0.5,1.3,1.1,2.6,1.7,3.6L199.9,70.1z M196.1,62.4c-1.5,0.6-3.3,1.9-2.4,4.2c0.6,1.6,1.8,1.9,2.5,1.6c0.7-0.3,1.3-1,1.3-2.1
            c0-0.3-0.1-0.5-0.2-0.8L196.1,62.4z"/>
        <path class="st1" d="M204,45l1.5,4.5l3.3-1.1l1.1,3.2l-3.3,1.1l2.5,7.6c0.7,1.9,1.6,2.1,2.5,1.9c0.4-0.1,0.8-0.3,1.1-0.5l1.2,3.5
            c-0.6,0.4-1.4,0.8-2.6,1.2c-1.3,0.4-2.5,0.5-3.6,0c-1.2-0.6-2.2-1.7-3-4.3l-2.6-7.9l-2,0.7l-1.1-3.2l2-0.7l-1.2-3.4L204,45z"/>
        <path class="st1" d="M225.6,52.7c2,7.1-1.5,9.9-4.1,10.6c-4.1,1.1-7.4-1.4-8.9-6.9c-1.7-6.1,0.8-9.7,4.1-10.6
            C220.8,44.6,224.2,47.3,225.6,52.7z M217.2,55c0.8,2.9,1.9,5.2,3.6,4.8c1.5-0.4,1.1-3.4,0.4-5.9c-0.6-2.3-1.8-5.2-3.4-4.8
            C216.1,49.6,216.5,52.7,217.2,55z"/>
        <path class="st1" d="M227.3,48.8c-0.4-1.7-0.9-3.6-1.3-5.1l4-0.9l0.8,2.4l0.1,0c0.4-2,1.5-3.2,2.8-3.5c0.5-0.1,0.7-0.2,1-0.1
            l1,4.6c-0.3,0-0.6,0.1-1,0.1c-1,0.2-2.1,1.2-2.3,3.1c0,0.4,0,1,0.2,1.8l1.9,8.7l-4.6,1L227.3,48.8z"/>
        <path class="st1" d="M241.1,40.6l3.2,8.7c0.3,1,0.6,1.9,0.9,2.8l0.1,0c0-0.9,0-1.9,0-2.9l0-9.3l4.5-0.7l-1.4,14
            c-0.3,3.4-0.9,7-2.4,9.5c-1.2,1.9-2.8,3.1-3.5,3.4l-2.1-3.8c0.8-0.4,1.5-1.1,2.1-1.8c0.5-0.7,0.9-1.5,1.1-2.3
            c0.1-0.3,0.2-0.5,0.1-0.8c0-0.2-0.1-0.4-0.2-0.6l-7.4-15.3L241.1,40.6z"/>
        <path class="st1" d="M258.6,51c1,0.5,2.7,0.7,4.1,0.6c2.2-0.2,3.2-1.4,3.1-3c-0.1-1.8-1.3-2.5-3.4-3.7c-3.5-1.7-4.9-4.2-5.1-6.4
            c-0.3-3.9,2-7.3,7.1-7.7c1.6-0.1,3.1,0.2,3.9,0.5l-0.4,4.1c-0.7-0.4-1.8-0.7-3.2-0.6c-2,0.2-2.9,1.5-2.8,2.8
            c0.1,1.4,0.9,2.1,3.6,3.5c3.4,1.7,4.7,4,4.9,6.6c0.4,4.4-2.7,7.6-7.4,8c-1.9,0.2-3.9-0.2-4.7-0.6L258.6,51z"/>
        <path class="st1" d="M285.7,49.2c0,1.9,0.1,3.7,0.2,5.4l-4.1,0.1l-0.3-1.9l-0.1,0c-0.8,1.2-2.2,2.2-4,2.2
            c-3.3,0.1-4.8-2.4-4.8-7.2l-0.2-10.7l4.8-0.1l0.2,10.2c0,2.3,0.5,3.8,1.8,3.7c0.8,0,1.3-0.6,1.5-1.2c0.2-0.4,0.3-0.9,0.3-1.5
            L280.7,37l4.7-0.1L285.7,49.2z"/>
        <path class="st1" d="M288.9,42.6c0.1-2.1,0.1-3.9,0.1-5.6l4.1,0.2l0.2,2l0.1,0c0.8-1.4,2.2-2.2,3.8-2.1c3.9,0.2,5.3,4.4,5,9.3
            c-0.3,6.3-3.2,9-6.2,8.8c-1.4-0.1-2.4-1-2.8-1.9l-0.1,0l-0.4,8.3l-4.7-0.2L288.9,42.6z M293.3,48.4c0,0.6,0,1.2,0.2,1.5
            c0.3,1.1,0.9,1.4,1.4,1.4c1.7,0.1,2.4-2.3,2.5-5.1c0.2-3.3-0.5-5.2-1.9-5.3c-0.7,0-1.4,0.6-1.7,1.4c-0.2,0.4-0.3,0.8-0.3,1.2
            L293.3,48.4z"/>
        <path class="st1" d="M305,43.5c0.2-2.1,0.4-3.9,0.5-5.6l4.1,0.5l0,2l0.1,0c0.9-1.3,2.3-2,3.9-1.9c3.9,0.5,4.9,4.8,4.4,9.7
            c-0.7,6.2-3.8,8.7-6.8,8.4c-1.4-0.2-2.3-1.2-2.7-2.1l-0.1,0l-1,8.3l-4.7-0.6L305,43.5z M309,49.6c-0.1,0.6-0.1,1.2,0.1,1.5
            c0.2,1.1,0.8,1.5,1.3,1.5c1.6,0.2,2.5-2.2,2.8-4.9c0.4-3.3-0.2-5.2-1.6-5.4c-0.7-0.1-1.5,0.5-1.8,1.3c-0.2,0.3-0.3,0.8-0.4,1.2
            L309,49.6z"/>
        <path class="st1" d="M333,51c-1.3,7.2-5.7,8.2-8.3,7.8c-4.1-0.8-6-4.5-5-10.1c1.2-6.2,4.9-8.4,8.4-7.7C332.2,41.6,334,45.5,333,51
            z M324.4,49.4c-0.6,3-0.6,5.5,1.1,5.8c1.5,0.3,2.4-2.6,2.9-5.1c0.4-2.4,0.6-5.5-0.9-5.7C325.7,44.1,324.8,47,324.4,49.4z"/>
        <path class="st1" d="M336.2,48.2c0.4-1.7,0.8-3.6,1.1-5.2l4,1l-0.4,2.5l0.1,0c1.2-1.6,2.8-2.2,4.1-1.9c0.5,0.1,0.7,0.2,1,0.3
            l-1.1,4.5c-0.3-0.1-0.6-0.2-1-0.3c-1-0.2-2.4,0.1-3.4,1.8c-0.2,0.4-0.4,0.9-0.6,1.7l-2.1,8.7l-4.6-1.1L336.2,48.2z"/>
        <path class="st1" d="M355.3,42.9l-1.3,4.6l3.3,1l-0.9,3.2l-3.3-1l-2.3,7.7c-0.6,2,0.1,2.7,1,3c0.4,0.1,0.8,0.2,1.2,0.2l-1,3.5
            c-0.7,0-1.6-0.1-2.9-0.5c-1.3-0.4-2.4-1-2.9-2c-0.7-1.2-0.8-2.6,0-5.3l2.4-8l-2-0.6l0.9-3.2l2,0.6l1-3.5L355.3,42.9z"/>
        <path class="st1" d="M372,71.9c-1.1,0-3.4-0.4-5-1c-2.6-1-4.2-2.5-5.2-4.6c-1.2-2.6-1-6.4,0.6-10.3c3.3-8.2,9.3-9.8,14.1-7.9
            c1.7,0.7,2.9,1.5,3.4,2.1l-2.2,3.5c-0.5-0.6-1.3-1.1-2.4-1.5c-3-1.2-6.2,0-8.5,5.9c-2.1,5.4-0.8,8.2,1.3,9
            c0.4,0.2,0.7,0.2,0.9,0.2l2.1-5.5l-2-0.8l1.4-3.6l6.1,2.4L372,71.9z"/>
        <path class="st1" d="M379,62.3c0.7-1.6,1.5-3.4,2.1-4.9l3.7,1.7l-0.8,2.4l0.1,0c1.5-1.4,3.2-1.7,4.4-1.1c0.4,0.2,0.7,0.3,0.9,0.5
            l-1.9,4.3c-0.2-0.2-0.5-0.3-0.9-0.5c-0.9-0.4-2.4-0.4-3.7,1.1c-0.3,0.3-0.6,0.8-0.9,1.5l-3.7,8.1l-4.3-2L379,62.3z"/>
        <path class="st1" d="M398.4,75.7c-3.4,6.5-7.8,6.2-10.2,5c-3.7-2-4.4-6.1-1.8-11.1c2.9-5.6,7.2-6.6,10.3-4.9
            C400.3,66.6,400.9,70.8,398.4,75.7z M390.6,71.7c-1.4,2.7-2.2,5.1-0.7,5.9c1.3,0.7,3.1-1.7,4.3-4c1.1-2.1,2.2-5,0.8-5.8
            C393.4,67,391.7,69.5,390.6,71.7z"/>
        <path class="st1" d="M409.7,86.7c-1,1.6-1.9,3.2-2.7,4.7l-3.5-2.1l0.8-1.7l-0.1,0c-1.3,0.6-3.1,0.7-4.6-0.3
            c-2.9-1.7-2.7-4.6-0.3-8.6l5.6-9.1l4.1,2.5l-5.3,8.7c-1.2,2-1.6,3.5-0.5,4.1c0.7,0.4,1.4,0.2,1.9-0.2c0.3-0.2,0.7-0.6,1-1.1
            l5.9-9.6l4,2.5L409.7,86.7z"/>
        <path class="st1" d="M415.9,82.8c1.2-1.7,2.2-3.2,3.1-4.6l3.4,2.4l-1,1.8l0.1,0c1.4-0.8,3-0.7,4.3,0.2c3.2,2.2,2.1,6.6-0.8,10.6
            c-3.6,5.1-7.5,5.8-9.9,4.1c-1.2-0.8-1.4-2.1-1.4-3.1l-0.1,0l-4.8,6.8l-3.9-2.7L415.9,82.8z M416.5,90.1c-0.4,0.5-0.6,1-0.7,1.4
            c-0.3,1.1,0,1.7,0.4,2c1.4,1,3.2-0.7,4.8-3c1.9-2.7,2.3-4.7,1.2-5.5c-0.6-0.4-1.5-0.3-2.2,0.3c-0.4,0.2-0.7,0.6-0.9,0.9
            L416.5,90.1z"/>
    </g>
</g>
<g>
    <g>
        <line class="st3" x1="250.4" y1="417.1" x2="239.8" y2="460"/>
        <g>
            <path class="st4" d="M254,402.5c-4.3,6.3-10.7,13.7-16.7,17.9l12.6-1.3l10.5,7C257.1,419.6,254.9,410,254,402.5z"/>
        </g>
        <g>
            <path class="st4" d="M236.2,474.6c-0.9-7.5-3.1-17.2-6.4-23.6l10.5,7l12.6-1.3C246.9,460.9,240.4,468.4,236.2,474.6z"/>
        </g>
    </g>
</g>
<g>
    <g>
        <path class="st3" d="M44.2,283.8c-0.1,36,7.1,67.5,22.7,99.8"/>
        <g>
            <path class="st4" d="M44.6,268.7c-2.8,7-7.5,15.7-12.5,21l12-4l11.8,4.6C51.3,284.8,47.1,275.9,44.6,268.7z"/>
        </g>
        <g>
            <path class="st4" d="M73.8,397.1c-5.6-5.1-13.6-10.9-20.3-13.6l12.5-1.6l8.6-9.3C72.9,379.7,72.9,389.5,73.8,397.1z"/>
        </g>
    </g>
</g>
<a class="svg-link" xlink:href="http://microsoft.com" target="_top"><path id="patient-advocacy" class="st5" d="M508,294.8c-6.3,110.9-88.9,197.3-198.7,211.3"/></a>
<g class="ignore-pointer">
    <path class="st1" d="M356.1,482.9c1.1-0.8,2.7-1.6,4.4-2.2c2.6-1,4.8-1.5,6.8-0.7c1.8,0.6,3.1,2.3,3.9,4.2c1,2.4,0.9,4.4,0.2,6.2
        c-0.8,2-2.8,3.6-4.6,4.3c-0.3,0.1-0.6,0.2-0.9,0.3l3.3,8.4l-4.4,1.7L356.1,482.9z M364.5,491.5c0.2,0,0.5-0.1,0.7-0.2
        c2.2-0.9,2.6-2.8,1.8-4.9c-0.8-2-2.2-3.2-4.2-2.4c-0.4,0.2-0.8,0.4-1,0.6L364.5,491.5z"/>
    <path class="st1" d="M387.1,495.7l-1-1.5l-0.1,0c-0.3,1.7-1.3,2.8-2.7,3.5c-2.4,1.1-5.2,0-6.5-2.9c-2-4.2,0.9-7.6,4.5-9.4l-0.2-0.4
        c-0.6-1.2-1.8-1.8-3.3-1.1c-1.3,0.6-2.2,1.4-2.8,2.4l-2.1-2.5c0.6-0.9,2.2-2.5,4.4-3.5c4.8-2.3,7.2,0.7,8.8,3.9l2.8,5.9
        c0.6,1.3,1.3,2.5,2,3.5L387.1,495.7z M382.9,488.2c-1.4,0.7-3.2,2.1-2.1,4.3c0.8,1.6,1.9,1.8,2.6,1.5c0.7-0.3,1.3-1.1,1.1-2.2
        c0-0.3-0.1-0.5-0.3-0.8L382.9,488.2z"/>
    <path class="st1" d="M388.1,470l2.3,4.2l3-1.7l1.6,2.9l-3,1.7l3.8,7.1c1,1.8,2,1.8,2.8,1.4c0.4-0.2,0.7-0.4,1-0.7l1.8,3.2
        c-0.5,0.5-1.3,1.1-2.4,1.7c-1.2,0.7-2.4,0.9-3.5,0.6c-1.3-0.4-2.4-1.3-3.7-3.7l-4-7.3l-1.8,1l-1.6-2.9l1.8-1l-1.7-3.2L388.1,470z"
        />
    <path class="st1" d="M396.7,465.1c0.8,1.3,0.4,2.7-0.8,3.5c-1.1,0.7-2.6,0.3-3.3-1c-0.8-1.3-0.4-2.8,0.8-3.4
        C394.5,463.4,395.9,463.7,396.7,465.1z M404.2,486.6l-9.1-15.1l4-2.4l9.1,15.1L404.2,486.6z"/>
    <path class="st1" d="M410.9,474.1c1.6,2.2,3.5,2.2,5.2,1c1.1-0.7,1.9-1.6,2.5-2.3l2.4,2.4c-0.8,1.1-2.1,2.4-3.6,3.4
        c-4,2.7-7.9,1.5-11-3.1c-3.3-4.9-2.7-9.5,0.6-11.8c3.1-2.1,6.6-0.9,9.6,3.6c0.7,1,1.1,1.6,1.2,2.1L410.9,474.1z M412.5,469
        c-1.3-1.9-2.7-3-3.9-2.2c-1.3,0.9-0.5,3.1,0.4,4.6L412.5,469z"/>
    <path class="st1" d="M417.2,463.5c-1.2-1.5-2.3-2.8-3.4-4.1l3.2-2.5l1.4,1.5l0.1,0c-0.1-1.7,0.5-3.3,2-4.5c2.6-2.1,5.3-0.8,7.7,2.3
        l6.9,8.9l-3.7,2.9l-6.8-8.7c-0.9-1.2-2.1-2.1-3.2-1.2c-0.6,0.5-0.8,1.3-0.4,2.3c0.1,0.4,0.4,0.9,0.8,1.4l6.6,8.5l-3.7,2.9
        L417.2,463.5z"/>
    <path class="st1" d="M427.6,442l3.1,3.6l2.6-2.3l2.2,2.5l-2.6,2.3l5.3,6c1.4,1.5,2.3,1.3,3,0.7c0.4-0.3,0.6-0.6,0.8-0.9l2.5,2.7
        c-0.4,0.6-1,1.3-1.9,2.1c-1,0.9-2.1,1.5-3.3,1.4c-1.3-0.1-2.6-0.7-4.5-2.8l-5.5-6.2l-1.6,1.4l-2.2-2.5l1.6-1.4l-2.4-2.7L427.6,442z
        "/>
    <path class="st1" d="M450.4,443.3l3.3,4.6l-3.1,3.3l-14-20.5l3.9-4.1l20.9,13.3l-3.1,3.3l-4.7-3.1L450.4,443.3z M450.4,437.9
        l-4.2-2.9c-1.2-0.8-3.2-2.3-4.5-3.2l-0.1,0.1c1,1.3,2.6,3.3,3.4,4.4l3,4.1L450.4,437.9z"/>
    <path class="st1" d="M452,412l15.2,12.5c1.3,1.1,2.8,2.2,4.1,3.2l-2.6,3.1l-1.7-1.1l0,0.1c0.5,1.3,0.5,3-0.6,4.3
        c-2.4,2.9-6.7,1.6-10.5-1.5c-4.7-3.9-5.4-7.8-3.5-10.1c1-1.2,2.2-1.5,3.2-1.2l0-0.1l-6.8-5.6L452,412z M459.9,424.6
        c-0.3-0.2-0.5-0.4-0.8-0.6c-1-0.5-2.1-0.7-2.7,0c-1,1.3,0.4,3.3,2.6,5.1c2.6,2.1,4.5,2.5,5.4,1.5c0.4-0.4,0.5-1.2-0.2-2.2
        c-0.1-0.2-0.4-0.5-0.7-0.8L459.9,424.6z"/>
    <path class="st1" d="M461.5,411.3l7.2,3.5c1.4,0.7,2.9,1.4,4.5,2.2l0-0.1c-1.3-1.2-2.4-2.2-3.6-3.4l-5.6-5.7l2.7-3.8l11.6,14
        l-2.5,3.6l-17.1-6.3L461.5,411.3z"/>
    <path class="st1" d="M481.4,396.9c6.3,3.9,5.6,8.3,4.2,10.5c-2.2,3.6-6.4,4-11.2,1c-5.4-3.3-6-7.6-4.2-10.6
        C472.3,394.3,476.6,394,481.4,396.9z M476.8,404.4c2.6,1.6,5,2.5,5.9,1.1c0.8-1.3-1.5-3.2-3.7-4.5c-2.1-1.3-4.9-2.5-5.7-1.2
        C472.3,401.2,474.7,403.1,476.8,404.4z"/>
    <path class="st1" d="M494.9,389.9c0,0.5-0.3,1.7-1,2.9c-2.1,3.9-6.2,5-11.3,2.3c-4.8-2.6-6.6-7.2-4.3-11.5c0.5-1,1.2-1.8,1.6-2.1
        l3,2.3c-0.3,0.3-0.7,0.7-1.1,1.4c-1.1,2,0.2,4.2,2.9,5.6c2.8,1.5,5.2,1.3,6.2-0.7c0.3-0.6,0.5-1.2,0.5-1.7L494.9,389.9z"/>
    <path class="st1" d="M499.8,380l-1.7-0.5l0,0.1c0.8,1.5,0.9,3,0.2,4.4c-1.1,2.4-4,3.3-6.8,2c-4.2-1.9-4.2-6.4-2.6-10.1l-0.4-0.2
        c-1.2-0.6-2.5-0.2-3.2,1.3c-0.6,1.3-0.7,2.5-0.6,3.7l-3.2-0.5c-0.1-1.1,0-3.3,1.1-5.5c2.2-4.9,6-4.1,9.2-2.6l6,2.7
        c1.3,0.6,2.6,1.1,3.8,1.4L499.8,380z M491.8,377c-0.6,1.5-1.1,3.6,1.2,4.6c1.6,0.7,2.6,0.1,2.9-0.5c0.3-0.7,0.2-1.7-0.6-2.4
        c-0.2-0.2-0.4-0.3-0.7-0.4L491.8,377z"/>
    <path class="st1" d="M506.2,363.4c0,0.5-0.1,1.7-0.6,3c-1.6,4.2-5.5,5.8-10.9,3.7c-5.1-2-7.4-6.3-5.7-10.8c0.4-1,1-1.9,1.4-2.2
        l3.2,1.9c-0.3,0.3-0.7,0.8-0.9,1.5c-0.8,2.1,0.7,4.1,3.6,5.2c3,1.2,5.3,0.6,6.1-1.4c0.2-0.6,0.4-1.2,0.3-1.8L506.2,363.4z"/>
    <path class="st1" d="M492,351.4l9.2,1.1c1,0.1,2,0.3,3,0.4l0-0.1c-0.8-0.4-1.7-0.8-2.6-1.3l-8.3-4.2l1.4-4.4l11.9,7.5
        c2.9,1.8,5.8,4,7.4,6.5c1.2,1.9,1.4,3.9,1.4,4.6l-4.3,0.1c0-0.9-0.3-1.8-0.7-2.7c-0.4-0.8-0.9-1.5-1.5-2c-0.3-0.2-0.4-0.4-0.6-0.5
        c-0.2-0.1-0.4-0.1-0.7-0.1l-17-0.3L492,351.4z"/>
</g>
</svg>
